<svg width="31" height="31" viewBox="0 0 31 31" fill="none" xmlns="http://www.w3.org/2000/svg">
<path d="M15.5 6.45832V6.47124V6.45832ZM15.5 15.5V15.5129V15.5ZM15.5 24.5417V24.5546V24.5417ZM15.5 7.74999C15.1574 7.74999 14.8289 7.6139 14.5866 7.37167C14.3444 7.12943 14.2083 6.80089 14.2083 6.45832C14.2083 6.11575 14.3444 5.78721 14.5866 5.54498C14.8289 5.30274 15.1574 5.16666 15.5 5.16666C15.8426 5.16666 16.1711 5.30274 16.4133 5.54498C16.6556 5.78721 16.7917 6.11575 16.7917 6.45832C16.7917 6.80089 16.6556 7.12943 16.4133 7.37167C16.1711 7.6139 15.8426 7.74999 15.5 7.74999ZM15.5 16.7917C15.1574 16.7917 14.8289 16.6556 14.5866 16.4133C14.3444 16.1711 14.2083 15.8426 14.2083 15.5C14.2083 15.1574 14.3444 14.8289 14.5866 14.5866C14.8289 14.3444 15.1574 14.2083 15.5 14.2083C15.8426 14.2083 16.1711 14.3444 16.4133 14.5866C16.6556 14.8289 16.7917 15.1574 16.7917 15.5C16.7917 15.8426 16.6556 16.1711 16.4133 16.4133C16.1711 16.6556 15.8426 16.7917 15.5 16.7917ZM15.5 25.8333C15.1574 25.8333 14.8289 25.6972 14.5866 25.455C14.3444 25.2128 14.2083 24.8842 14.2083 24.5417C14.2083 24.1991 14.3444 23.8705 14.5866 23.6283C14.8289 23.3861 15.1574 23.25 15.5 23.25C15.8426 23.25 16.1711 23.3861 16.4133 23.6283C16.6556 23.8705 16.7917 24.1991 16.7917 24.5417C16.7917 24.8842 16.6556 25.2128 16.4133 25.455C16.1711 25.6972 15.8426 25.8333 15.5 25.8333Z" stroke="#7CDEDC" stroke-width="2" stroke-linecap="round" stroke-linejoin="round"/>
</svg>
