<svg width="221" height="120" viewBox="0 0 221 120" fill="none" xmlns="http://www.w3.org/2000/svg">
<path d="M221 0H0V120H221V0Z" fill="#7CDEDC"/>
<path fill-rule="evenodd" clip-rule="evenodd" d="M50.2263 55.4897C53.2725 55.4897 55.7419 53.0314 55.7419 49.9991C55.7419 46.9667 53.2725 44.5084 50.2263 44.5084C47.1801 44.5084 44.7107 46.9667 44.7107 49.9991C44.7107 53.0314 47.1801 55.4897 50.2263 55.4897ZM50.2263 53.8425C52.3587 53.8425 54.0873 52.1218 54.0873 49.9991C54.0873 47.8764 52.3587 46.1556 50.2263 46.1556C48.094 46.1556 46.3654 47.8764 46.3654 49.9991C46.3654 52.1218 48.094 53.8425 50.2263 53.8425Z" fill="#80C8D7"/>
<path fill-rule="evenodd" clip-rule="evenodd" d="M30.1364 73.7458C32.2145 73.7458 33.8992 72.0687 33.8992 70C33.8992 67.9313 32.2145 66.2542 30.1364 66.2542C28.0582 66.2542 26.3736 67.9313 26.3736 70C26.3736 72.0687 28.0582 73.7458 30.1364 73.7458ZM30.1364 72.6221C31.5911 72.6221 32.7703 71.4481 32.7703 70C32.7703 68.5519 31.5911 67.3779 30.1364 67.3779C28.6817 67.3779 27.5024 68.5519 27.5024 70C27.5024 71.4481 28.6817 72.6221 30.1364 72.6221Z" fill="#056897"/>
<path fill-rule="evenodd" clip-rule="evenodd" d="M210.955 73.7458C213.033 73.7458 214.717 72.0687 214.717 70C214.717 67.9313 213.033 66.2542 210.955 66.2542C208.876 66.2542 207.192 67.9313 207.192 70C207.192 72.0687 208.876 73.7458 210.955 73.7458ZM210.955 72.6221C212.409 72.6221 213.589 71.4481 213.589 70C213.589 68.5519 212.409 67.3779 210.955 67.3779C209.5 67.3779 208.321 68.5519 208.321 70C208.321 71.4481 209.5 72.6221 210.955 72.6221Z" fill="#82BCD4"/>
<path fill-rule="evenodd" clip-rule="evenodd" d="M70.3191 97.2374C74.3338 97.2374 77.5885 93.9975 77.5885 90.0009C77.5885 86.0044 74.3338 82.7645 70.3191 82.7645C66.3044 82.7645 63.0498 86.0044 63.0498 90.0009C63.0498 93.9975 66.3044 97.2374 70.3191 97.2374ZM70.3191 95.0665C73.1294 95.0665 75.4077 92.7985 75.4077 90.0009C75.4077 87.2033 73.1294 84.9354 70.3191 84.9354C67.5088 84.9354 65.2306 87.2033 65.2306 90.0009C65.2306 92.7985 67.5088 95.0665 70.3191 95.0665Z" fill="#85AAD0"/>
<path fill-rule="evenodd" clip-rule="evenodd" d="M190.863 95.4897C193.909 95.4897 196.378 93.0314 196.378 89.9991C196.378 86.9667 193.909 84.5084 190.863 84.5084C187.817 84.5084 185.347 86.9667 185.347 89.9991C185.347 93.0314 187.817 95.4897 190.863 95.4897ZM190.863 93.8425C192.995 93.8425 194.724 92.1218 194.724 89.9991C194.724 87.8764 192.995 86.1556 190.863 86.1556C188.73 86.1556 187.002 87.8764 187.002 89.9991C187.002 92.1218 188.73 93.8425 190.863 93.8425Z" fill="#066A97"/>
<path fill-rule="evenodd" clip-rule="evenodd" d="M30.1364 113.746C32.2145 113.746 33.8992 112.069 33.8992 110C33.8992 107.931 32.2145 106.254 30.1364 106.254C28.0582 106.254 26.3736 107.931 26.3736 110C26.3736 112.069 28.0582 113.746 30.1364 113.746ZM30.1364 112.622C31.5911 112.622 32.7703 111.448 32.7703 110C32.7703 108.552 31.5911 107.378 30.1364 107.378C28.6817 107.378 27.5024 108.552 27.5024 110C27.5024 111.448 28.6817 112.622 30.1364 112.622Z" fill="#2184A7"/>
<path fill-rule="evenodd" clip-rule="evenodd" d="M130.591 120C136.139 120 140.636 115.523 140.636 110C140.636 104.477 136.139 100 130.591 100C125.043 100 120.545 104.477 120.545 110C120.545 115.523 125.043 120 130.591 120ZM130.591 117C134.474 117 137.623 113.866 137.623 110C137.623 106.134 134.474 103 130.591 103C126.707 103 123.559 106.134 123.559 110C123.559 113.866 126.707 117 130.591 117Z" fill="#45A8BC"/>
</svg>
